<?xml version="1.0" encoding="UTF-8" standalone="no"?>
<svg
   xmlns:dc="http://purl.org/dc/elements/1.1/"
   xmlns:cc="http://creativecommons.org/ns#"
   xmlns:rdf="http://www.w3.org/1999/02/22-rdf-syntax-ns#"
   xmlns:svg="http://www.w3.org/2000/svg"
   xmlns="http://www.w3.org/2000/svg"
   xmlns:sodipodi="http://sodipodi.sourceforge.net/DTD/sodipodi-0.dtd"
   xmlns:inkscape="http://www.inkscape.org/namespaces/inkscape"
   viewBox="0 0 16 16"
   version="1.1"
   id="svg827"
   sodipodi:docname="camera.svg"
   inkscape:version="0.92.4 (5da689c313, 2019-01-14)">
  <metadata
     id="metadata833">
    <rdf:RDF>
      <cc:Work
         rdf:about="">
        <dc:format>image/svg+xml</dc:format>
        <dc:type
           rdf:resource="http://purl.org/dc/dcmitype/StillImage" />
      </cc:Work>
    </rdf:RDF>
  </metadata>
  <defs
     id="defs831" />
  <sodipodi:namedview
     pagecolor="#ffffff"
     bordercolor="#666666"
     borderopacity="1"
     objecttolerance="10"
     gridtolerance="10"
     guidetolerance="10"
     inkscape:pageopacity="0"
     inkscape:pageshadow="2"
     inkscape:window-width="1920"
     inkscape:window-height="1001"
     id="namedview829"
     showgrid="false"
     inkscape:zoom="50.5"
     inkscape:cx="1.2673267"
     inkscape:cy="8"
     inkscape:window-x="-9"
     inkscape:window-y="-9"
     inkscape:window-maximized="1"
     inkscape:current-layer="svg827" />
  <path
     d="M 12.661132,5.0730389 C 12.401919,4.8201339 12.08865,4.6939876 11.722556,4.6939876 H 10.560393 L 10.295651,4.0069188 C 10.229926,3.8415815 10.109533,3.6995138 9.9350861,3.5801034 9.7606388,3.4606931 9.5812775,3.4006817 9.3982307,3.4006817 H 6.7422092 c -0.1830468,0 -0.3624081,0.060011 -0.5368554,0.1794217 C 6.0309065,3.6995138 5.9105133,3.8421938 5.8447885,4.0069188 L 5.5800462,4.6939876 H 4.4178833 c -0.3667079,0 -0.6793617,0.1261463 -0.9391899,0.3790513 C 3.2194795,5.3259438 3.0898725,5.6308995 3.0898725,5.9879058 v 4.5284082 c 0,0.357006 0.129607,0.661962 0.3888209,0.914867 0.259214,0.252905 0.572482,0.379051 0.9391899,0.379051 h 7.3034447 c 0.366708,0 0.679362,-0.126146 0.938576,-0.379051 0.259213,-0.252905 0.38882,-0.557861 0.38882,-0.914867 V 5.9879058 c 0,-0.3570063 -0.129607,-0.661962 -0.38882,-0.9148669 M 9.7108845,9.8519025 C 9.2563387,10.295252 8.7090411,10.516314 8.0689914,10.516314 c -0.6400495,0 -1.186733,-0.221675 -1.641893,-0.6644115 C 5.9725526,9.4085528 5.7446655,8.875799 5.7446655,8.2524158 c 0,-0.6233832 0.2272729,-1.1567495 0.6824329,-1.5994862 0.4545458,-0.4433492 1.0018435,-0.6644114 1.641893,-0.6644114 0.6400497,0 1.1867331,0.2216745 1.6418931,0.6644114 0.4545465,0.4433491 0.6824325,0.976103 0.6824325,1.5994862 0,0.6233832 -0.227272,1.1567494 -0.6824325,1.5994867 M 8.0689914,6.7968343 c -0.4115482,0 -0.763514,0.1420677 -1.0558975,0.4268155 -0.2923835,0.2847476 -0.4385752,0.6276697 -0.4385752,1.028766 0,0.4010962 0.1461917,0.7440182 0.4385752,1.0287657 0.2923835,0.2847479 0.6443493,0.4268161 1.0558975,0.4268161 0.4115482,0 0.7635141,-0.1420682 1.0558976,-0.4268161 C 9.4172725,8.996434 9.5634642,8.653512 9.5634642,8.2524158 9.5634642,7.8513195 9.4172725,7.5083974 9.124889,7.2236498 8.8325055,6.938902 8.4805396,6.7968343 8.0689914,6.7968343"
     id="path825"
     style="fill:#333333;stroke-width:0.61330515"
     inkscape:export-xdpi="150"
     inkscape:export-ydpi="150"
     inkscape:connector-curvature="0" />
</svg>
